<?xml version="1.0" encoding="utf-8"?>
<!-- Generator: Adobe Illustrator 19.0.0, SVG Export Plug-In . SVG Version: 6.00 Build 0)  -->
<svg version="1.1" id="Layer_1" xmlns="http://www.w3.org/2000/svg" xmlns:xlink="http://www.w3.org/1999/xlink" x="0px" y="0px"
	 viewBox="0 0 720 1280" style="enable-background:new 0 0 720 1280;" xml:space="preserve">
<style type="text/css">
	.st0{fill:#FFD600;}
	.st1{fill:#DD2C00;}
	.st2{fill:#333333;}
</style>
<polygon id="XMLID_43_" class="st0" points="448.1,626.1 473.3,686.5 498.6,746.9 339,631.4 179.5,515.9 208.8,578 238.2,640 
	0.8,492.6 0,492.3 0,1280 720,1280 720,787.7 "/>
<polygon id="XMLID_42_" class="st1" points="720,0 0,0 0,492.1 0.8,492.6 238.2,640 208.8,578 179.5,515.9 339,631.4 498.6,746.9 
	473.3,686.5 448.1,626.1 720,787.7 "/>
<g id="XMLID_41_">
	<path id="XMLID_50_" class="st2" d="M720,787.7l-8.8-4.5l-8.8-4.6l-17.6-9.2l-17.5-9.2l-17.5-9.3c-11.6-6.2-23.2-12.5-34.9-18.7
		l-34.8-18.9l-34.7-19.1L511,675l-17.3-9.6l-17.2-9.7c-11.5-6.5-23-12.9-34.5-19.4l16.9-14.7l13.2,29.9c4.4,10,8.8,20,13.1,30
		l13.1,30l13,30l19.7,45.4l-40.7-28.8c-13.4-9.5-26.8-18.9-40.2-28.5l-40.1-28.6c-13.4-9.5-26.6-19.2-40-28.7l-20-14.4
		c-6.7-4.8-13.3-9.6-19.9-14.4l-39.8-29c-6.6-4.8-13.3-9.7-19.9-14.5l-19.8-14.6l-19.8-14.6l-19.8-14.6L171.5,527l20.3-16.8
		l14.2,31.2c4.7,10.4,9.5,20.8,14.1,31.3l14,31.3l7,15.7l6.9,15.7l15.2,34.4l-31-20.4l-29.3-19.2l-29.2-19.4l-29.2-19.5
		c-9.7-6.5-19.4-13-29.1-19.6l-14.5-9.8l-14.5-9.9L72,542.2l-14.5-9.9l-14.4-10l-14.4-10l-14.4-10.1c-4.8-3.3-9.6-6.7-14.3-10.1
		c5.2,2.8,10.3,5.5,15.4,8.4l15.4,8.4l15.4,8.5l15.3,8.5l15.3,8.6l15.3,8.6l15.3,8.6l15.2,8.7c10.2,5.8,20.3,11.6,30.4,17.4
		l30.4,17.5l30.3,17.6l30.2,17.7l-15.8,14.1l-7.7-15.3l-7.7-15.4l-15.3-30.7c-5.1-10.2-10.1-20.5-15.2-30.8l-15.2-30.8L143.7,474
		l43.8,31l40.2,28.4l20.1,14.2l20,14.3l20,14.3c6.7,4.8,13.4,9.5,20,14.3l39.9,28.8c6.7,4.8,13.3,9.6,19.9,14.4l19.9,14.5
		c13.3,9.7,26.6,19.3,39.8,29l39.7,29.1c13.2,9.7,26.4,19.5,39.6,29.3l-21,16.6l-12.3-30.3l-12.1-30.4c-4-10.1-8.1-20.2-12.1-30.4
		l-12-30.4l-13.1-33.3l30,18.6c11.2,6.9,22.4,14,33.5,21l16.7,10.5l16.7,10.6l33.4,21.2l33.3,21.3l33.2,21.5
		c11,7.2,22.1,14.4,33.1,21.7l16.5,10.9l16.5,11l16.4,11l8.2,5.5L720,787.7z"/>
</g>
</svg>
