<?xml version="1.0" encoding="utf-8"?>
<!-- Generator: Adobe Illustrator 19.0.0, SVG Export Plug-In . SVG Version: 6.00 Build 0)  -->
<svg version="1.1" id="Layer_1" xmlns="http://www.w3.org/2000/svg" xmlns:xlink="http://www.w3.org/1999/xlink" x="0px" y="0px"
	 viewBox="0 0 200 100" style="enable-background:new 0 0 200 100;" xml:space="preserve">
<style type="text/css">
	.st0{fill:#1A1A1A;}
	.st1{fill:#FFFFFF;}
</style>
<path id="XMLID_1_" class="st0" d="M170,100H30C13.5,100,0,86.5,0,70V30C0,13.5,13.5,0,30,0l140,0c16.5,0,30,13.5,30,30v40
	C200,86.5,186.5,100,170,100z"/>
<path id="XMLID_2_" class="st1" d="M161.5,92.5h-123c-16.5,0-30-13.5-30-30v-25c0-16.5,13.5-30,30-30h123c16.5,0,30,13.5,30,30v25
	C191.5,79,178,92.5,161.5,92.5z"/>
</svg>
