<!DOCTYPE svg PUBLIC "-//W3C//DTD SVG 20010904//EN" "http://www.w3.org/TR/2001/REC-SVG-20010904/DTD/svg10.dtd">
<svg version="1.0" xmlns="http://www.w3.org/2000/svg" width="329px" height="277px" viewBox="0 0 3290 2770" preserveAspectRatio="xMidYMid meet">
<g id="layer101" fill="#030303" stroke="none">
 <path d="M687 2716 c-82 -34 -127 -66 -202 -143 -111 -114 -235 -313 -272 -437 -19 -62 -20 -187 -2 -246 17 -55 92 -135 137 -145 31 -6 32 -8 32 -63 0 -31 11 -138 25 -236 14 -99 25 -193 25 -209 0 -17 -26 -85 -59 -151 -64 -132 -92 -207 -115 -306 -20 -85 -20 -126 3 -176 42 -92 107 -119 287 -118 102 0 116 3 175 31 150 70 225 186 264 406 8 45 15 104 15 130 0 46 1 47 23 36 39 -21 351 -340 449 -459 52 -63 150 -187 219 -275 158 -203 202 -246 297 -292 74 -36 81 -38 182 -37 91 0 112 4 160 26 30 14 72 43 92 64 98 103 90 220 -25 358 -69 81 -294 406 -283 406 3 0 40 -20 82 -45 41 -25 77 -45 79 -45 2 0 73 -40 159 -89 205 -118 228 -126 346 -125 81 0 105 4 163 28 171 71 258 229 197 359 -30 63 -77 103 -245 209 -147 91 -418 279 -429 296 -9 15 213 -25 386 -69 91 -23 135 -24 207 -4 110 29 201 122 201 206 0 48 -42 132 -78 158 -27 19 -235 121 -247 121 -2 0 -28 11 -57 24 -29 13 -120 54 -203 91 -294 130 -466 229 -590 335 -168 145 -368 249 -575 301 -143 36 -261 43 -400 25 -80 -11 -126 -13 -128 -7 -8 24 -44 60 -76 75 -51 24 -149 21 -219 -8z"/>
 </g>
<g id="layer102" fill="#fefefe" stroke="none">
 <path d="M1218 2663 c18 -2 45 -2 60 0 15 2 0 4 -33 4 -33 0 -45 -2 -27 -4z"/>
 <path d="M760 2646 c-79 -22 -133 -57 -205 -130 -163 -165 -287 -410 -272 -539 7 -58 41 -121 73 -135 22 -11 23 -9 30 46 15 127 75 254 200 423 72 98 211 235 273 270 46 27 48 30 24 51 -26 23 -72 28 -123 14z"/>
 <path d="M1150 2569 c-188 -15 -264 -52 -400 -195 -127 -135 -242 -321 -271 -439 -19 -77 -14 -272 11 -445 12 -85 22 -193 23 -240 1 -85 1 -85 -60 -205 -76 -149 -116 -269 -117 -351 -1 -83 14 -99 107 -114 234 -40 387 62 442 296 9 38 19 128 22 199 3 72 10 138 15 148 16 31 52 18 138 -50 196 -155 393 -372 740 -811 164 -208 245 -260 392 -250 126 8 203 70 203 164 0 49 -4 56 -77 150 -67 85 -466 672 -526 774 -23 39 -94 211 -89 216 2 2 31 -36 65 -84 92 -130 177 -228 230 -267 113 -83 608 -366 683 -390 173 -58 403 68 386 211 -6 53 -36 92 -105 136 -416 261 -664 446 -794 593 -61 69 -158 208 -158 227 0 10 44 -26 195 -161 98 -88 114 -97 190 -105 109 -13 238 -36 400 -72 175 -40 216 -40 293 -3 45 22 82 69 82 104 0 36 -38 84 -87 108 -26 14 -167 78 -313 142 -463 205 -581 270 -742 406 -93 80 -172 131 -285 188 -200 100 -379 136 -593 120z m-93 -230 c111 -39 264 -110 281 -132 17 -20 7 -54 -17 -62 -10 -3 -61 15 -122 44 -57 27 -141 61 -186 76 -95 30 -111 44 -95 80 15 32 32 32 139 -6z m-129 -172 c129 -81 357 -252 360 -271 5 -23 -16 -46 -41 -46 -11 0 -68 35 -126 79 -102 76 -210 150 -298 205 -47 29 -58 66 -25 85 22 13 31 10 130 -52z m-164 -186 c92 -78 206 -194 206 -209 0 -17 -30 -42 -49 -42 -9 0 -39 23 -66 51 -28 28 -92 87 -142 131 -91 78 -106 101 -81 126 23 23 51 11 132 -57z"/>
 </g>

</svg>