<?xml version="1.0" encoding="utf-8"?>
<!-- Generator: Adobe Illustrator 19.0.0, SVG Export Plug-In . SVG Version: 6.00 Build 0)  -->
<svg version="1.1" id="Layer_1" xmlns="http://www.w3.org/2000/svg" xmlns:xlink="http://www.w3.org/1999/xlink" x="0px" y="0px"
	 viewBox="0 0 50 50" style="enable-background:new 0 0 50 50;" xml:space="preserve">
<style type="text/css">
	.st0{fill:#1A1A1A;}
	.st1{fill:#FFFFFF;}
	.st2{fill:#030303;}
	.st3{fill:#FEFEFE;}
</style>
<g id="XMLID_1_">
	<polygon id="XMLID_2_" class="st0" points="37.6,4 50,25.6 37.6,47.1 12.7,47.1 0.2,25.6 12.7,4 	"/>
	<polygon id="XMLID_3_" class="st1" points="36,6.7 46.9,25.6 36,44.4 14.2,44.4 3.3,25.6 14.2,6.7 	"/>
</g>
<g id="XMLID_6_">
	<g id="layer101">
		<path id="XMLID_56_" class="st2" d="M14.7,38.9c-0.8-0.3-1.3-0.7-2-1.4c-1.1-1.1-2.4-3.1-2.7-4.4c-0.2-0.6-0.2-1.9,0-2.5
			c0.2-0.6,0.9-1.4,1.4-1.5c0.3-0.1,0.3-0.1,0.3-0.6c0-0.3,0.1-1.4,0.3-2.4c0.1-1,0.3-1.9,0.3-2.1c0-0.2-0.3-0.9-0.6-1.5
			c-0.6-1.3-0.9-2.1-1.1-3.1c-0.2-0.9-0.2-1.3,0-1.8c0.4-0.9,1.1-1.2,2.9-1.2c1,0,1.2,0,1.8,0.3c1.5,0.7,2.3,1.9,2.6,4.1
			c0.1,0.4,0.1,1,0.1,1.3c0,0.5,0,0.5,0.2,0.4c0.4-0.2,3.5-3.4,4.5-4.6c0.5-0.6,1.5-1.9,2.2-2.8c1.6-2,2-2.5,3-2.9
			c0.7-0.4,0.8-0.4,1.8-0.4c0.9,0,1.1,0,1.6,0.3c0.3,0.1,0.7,0.4,0.9,0.6c1,1,0.9,2.2-0.3,3.6c-0.7,0.8-2.9,4.1-2.8,4.1
			c0,0,0.4-0.2,0.8-0.5c0.4-0.3,0.8-0.4,0.8-0.4c0,0,0.7-0.4,1.6-0.9c2-1.2,2.3-1.3,3.5-1.3c0.8,0,1.1,0,1.6,0.3
			c1.7,0.7,2.6,2.3,2,3.6c-0.3,0.6-0.8,1-2.5,2.1c-1.5,0.9-4.2,2.8-4.3,3c-0.1,0.2,2.1-0.3,3.9-0.7c0.9-0.2,1.3-0.2,2.1,0
			c1.1,0.3,2,1.2,2,2.1c0,0.5-0.4,1.3-0.8,1.6c-0.3,0.2-2.3,1.2-2.5,1.2c0,0-0.3,0.1-0.6,0.2c-0.3,0.1-1.2,0.5-2,0.9
			C31.6,33,29.9,34,28.7,35c-1.7,1.4-3.7,2.5-5.8,3c-1.4,0.4-2.6,0.4-4,0.3c-0.8-0.1-1.3-0.1-1.3-0.1c-0.1,0.2-0.4,0.6-0.8,0.8
			C16.4,39.2,15.4,39.2,14.7,38.9z"/>
	</g>
	<g id="layer102">
		<path id="XMLID_55_" class="st3" d="M20,38.4c0.2,0,0.5,0,0.6,0s0,0-0.3,0S19.8,38.4,20,38.4z"/>
		<path id="XMLID_54_" class="st3" d="M15.4,38.2c-0.8-0.2-1.3-0.6-2.1-1.3c-1.6-1.6-2.9-4.1-2.7-5.4c0.1-0.6,0.4-1.2,0.7-1.3
			c0.2-0.1,0.2-0.1,0.3,0.5c0.1,1.3,0.8,2.5,2,4.2c0.7,1,2.1,2.4,2.7,2.7c0.5,0.3,0.5,0.3,0.2,0.5C16.4,38.3,15.9,38.3,15.4,38.2z"
			/>
		<path id="XMLID_49_" class="st3" d="M19.3,37.4c-1.9-0.2-2.6-0.5-4-2c-1.3-1.4-2.4-3.2-2.7-4.4c-0.2-0.8-0.1-2.7,0.1-4.4
			c0.1-0.9,0.2-1.9,0.2-2.4c0-0.9,0-0.9-0.6-2.1c-0.8-1.5-1.2-2.7-1.2-3.5c0-0.8,0.1-1,1.1-1.1c2.3-0.4,3.9,0.6,4.4,3
			c0.1,0.4,0.2,1.3,0.2,2c0,0.7,0.1,1.4,0.2,1.5c0.2,0.3,0.5,0.2,1.4-0.5c2-1.6,3.9-3.7,7.4-8.1c1.6-2.1,2.5-2.6,3.9-2.5
			c1.3,0.1,2,0.7,2,1.6c0,0.5,0,0.6-0.8,1.5c-0.7,0.9-4.7,6.7-5.3,7.7c-0.2,0.4-0.9,2.1-0.9,2.2c0,0,0.3-0.4,0.6-0.8
			c0.9-1.3,1.8-2.3,2.3-2.7c1.1-0.8,6.1-3.7,6.8-3.9c1.7-0.6,4,0.7,3.9,2.1c-0.1,0.5-0.4,0.9-1.1,1.4c-4.2,2.6-6.6,4.5-7.9,5.9
			c-0.6,0.7-1.6,2.1-1.6,2.3c0,0.1,0.4-0.3,2-1.6c1-0.9,1.1-1,1.9-1.1c1.1-0.1,2.4-0.4,4-0.7c1.8-0.4,2.2-0.4,2.9,0
			c0.5,0.2,0.8,0.7,0.8,1c0,0.4-0.4,0.8-0.9,1.1c-0.3,0.1-1.7,0.8-3.1,1.4c-4.6,2.1-5.8,2.7-7.4,4.1c-0.9,0.8-1.7,1.3-2.9,1.9
			C23.3,37.2,21.5,37.6,19.3,37.4z M18.4,35.1c1.1-0.4,2.6-1.1,2.8-1.3c0.2-0.2,0.1-0.5-0.2-0.6c-0.1,0-0.6,0.2-1.2,0.4
			c-0.6,0.3-1.4,0.6-1.9,0.8c-1,0.3-1.1,0.4-1,0.8C17.2,35.5,17.3,35.5,18.4,35.1z M17.1,33.4c1.3-0.8,3.6-2.5,3.6-2.7
			c0-0.2-0.2-0.5-0.4-0.5c-0.1,0-0.7,0.3-1.3,0.8c-1,0.8-2.1,1.5-3,2c-0.5,0.3-0.6,0.7-0.2,0.9C16,34.1,16.1,34,17.1,33.4z
			 M15.5,31.6c0.9-0.8,2.1-1.9,2.1-2.1c0-0.2-0.3-0.4-0.5-0.4c-0.1,0-0.4,0.2-0.7,0.5c-0.3,0.3-0.9,0.9-1.4,1.3
			c-0.9,0.8-1.1,1-0.8,1.3C14.4,32.4,14.7,32.2,15.5,31.6z"/>
	</g>
</g>
</svg>
