<?xml version="1.0" encoding="utf-8"?>
<!-- Generator: Adobe Illustrator 19.0.0, SVG Export Plug-In . SVG Version: 6.00 Build 0)  -->
<svg version="1.1" id="Layer_1" xmlns="http://www.w3.org/2000/svg" xmlns:xlink="http://www.w3.org/1999/xlink" x="0px" y="0px"
	 viewBox="0 0 50 50" style="enable-background:new 0 0 50 50;" xml:space="preserve">
<style type="text/css">
	.st0{fill:#1A1A1A;}
	.st1{fill:#FFFFFF;}
	.st2{fill:#030303;}
	.st3{fill:#FEFEFE;}
</style>
<g id="XMLID_1_">
	<polygon id="XMLID_2_" class="st0" points="37.6,4 50,25.6 37.6,47.1 12.7,47.1 0.2,25.6 12.7,4 	"/>
	<polygon id="XMLID_3_" class="st1" points="36,6.7 46.9,25.6 36,44.4 14.2,44.4 3.3,25.6 14.2,6.7 	"/>
</g>
<g id="XMLID_5_">
	<g id="layer101_1_">
		<path id="XMLID_14_" class="st2" d="M32.8,31.7c-1.9,1.7-4.1,2.9-6.3,3.4c-1.2,0.3-3.1,0.3-4.1,0.1l-0.5-0.1l-0.4,0.5
			c-0.4,0.4-0.5,0.5-0.9,0.6c-1.3,0.3-3-0.5-4.4-2.1c-1.6-1.9-2.4-3.6-2.5-5.1c0-1.2,0.5-2.2,1.3-2.5c0.3-0.1,0.3-0.1,0.3-0.6
			c0-1.3,0.4-2.8,0.9-4.2c0.5-1.5,0.9-2.1,1.9-3.2c1-1.1,1.3-1.4,2.5-1.9c1.1-0.4,3.1-0.3,4.1,0.2c0.2,0.1,0.3,0.1,0.5-0.2
			c0.3-0.5,1.1-1.1,1.7-1.4c0.6-0.3,1.5-0.3,2.2-0.2c0.4,0.1,0.6,0.2,1.2,0.7c0.6,0.5,0.7,0.6,0.9,1.1c0.1,0.3,0.2,0.7,0.2,1l0,0.4
			l0.5-0.1c1.8-0.2,3.8,1.7,3.9,3.6c0,0.6-0.1,1.2-0.3,1.5c-0.1,0.2-0.1,0.3,0.3,0.9c0.5,0.8,0.6,1.7,0.3,2.7
			c-0.2,0.8-0.3,0.9-0.8,1.8C34.8,29.7,33.8,30.8,32.8,31.7z"/>
	</g>
	<g id="layer102_1_">
		<path id="XMLID_9_" class="st3" d="M32.5,30.8c-2.7,2.6-6.1,3.9-9.3,3.6c-1.8-0.2-1.9-0.2-3.2-1.3c-1.3-1.1-1.7-1.6-2.6-3.1
			c-0.7-1.2-1-2-1.1-3.4c-0.1-2.5,0.8-5.3,2.2-7.3c1.3-1.8,3.1-2.5,4.9-2c0.4,0.1,0.8,0.2,0.9,0.3l0.2,0.1L24,18.3
			c-0.9,0.9-1.9,1.5-3.2,1.9c-0.4,0.1-0.8,0.3-0.8,0.3c0,0,0.5,0,1.1-0.1c1.3-0.1,2-0.4,3-1.1c0.5-0.4,0.9-0.8,2.3-2.5
			c0.5-0.7,1.2-1,1.9-1c1.5,0,2.7,1.5,2.3,2.9c-0.1,0.4-0.8,1.6-1.7,3c-0.6,0.9-0.5,0.9,0.6-0.1c0.5-0.4,0.8-0.9,1.3-1.4
			c0.5-0.7,0.6-0.8,1-1c1.2-0.6,3.1,0.8,3.3,2.4c0.1,0.9,0,1.3-1,2.7c-0.5,0.7-1.2,1.5-1.5,2L31.9,27l0.5-0.3
			c0.6-0.4,1.6-1.3,2.2-1.9l0.4-0.5l0.2,0.3c0.7,1.1,0.3,2.7-1.3,4.6C33.5,29.8,32.9,30.5,32.5,30.8z M25.2,30.4
			c-0.1-0.3-0.5-0.3-1.1,0.1c-0.6,0.4-1.8,0.9-2.4,1.1c-0.5,0.1-0.7,0.3-0.7,0.6c0,0.5,0.7,0.4,2.3-0.3c1.2-0.5,1.9-0.9,1.9-1.1
			C25.3,30.6,25.3,30.5,25.2,30.4z M24.6,27.6c-0.1-0.4-0.4-0.5-0.7-0.2c-0.2,0.1-0.7,0.5-1.2,0.9c-0.9,0.7-1.8,1.4-2.6,1.9
			c-0.5,0.3-0.6,0.6-0.3,0.9c0.2,0.2,0.5,0.1,1.7-0.8c0.8-0.5,2.9-2.2,3.1-2.3C24.6,27.8,24.7,27.7,24.6,27.6z M21.4,26.5
			c0-0.3-0.4-0.5-0.6-0.3c-0.1,0.1-0.6,0.6-1.2,1.1c-0.5,0.5-1.1,1.1-1.3,1.3c-0.3,0.3-0.3,0.3-0.2,0.6c0.3,0.6,0.7,0.3,3.2-2.3
			C21.3,26.8,21.4,26.6,21.4,26.5z"/>
		<path id="XMLID_8_" class="st3" d="M20.1,35.3c-0.8,0-1.5-0.3-2.4-1.1c-1.6-1.4-3.1-3.9-3-5.2c0-0.8,0.2-1.3,0.5-1.6
			c0.1-0.1,0.3-0.2,0.3-0.2c0,0,0.1,0.3,0.2,0.7c0.3,1.4,1.2,3,2.7,4.8c0.7,0.8,1.9,1.8,2.4,2.1c0.2,0.1,0.2,0.1,0,0.3
			C20.7,35.2,20.5,35.3,20.1,35.3z"/>
	</g>
</g>
</svg>
