<?xml version="1.0" encoding="utf-8"?>
<!-- Generator: Adobe Illustrator 19.0.0, SVG Export Plug-In . SVG Version: 6.00 Build 0)  -->
<svg version="1.1" id="Layer_1" xmlns="http://www.w3.org/2000/svg" xmlns:xlink="http://www.w3.org/1999/xlink" x="0px" y="0px"
	 viewBox="0 0 50 50" style="enable-background:new 0 0 50 50;" xml:space="preserve">
<style type="text/css">
	.st0{fill:#1A1A1A;}
	.st1{fill:#FFFFFF;}
	.st2{fill:#030303;}
	.st3{fill:#FEFEFE;}
</style>
<g id="XMLID_1_">
	<polygon id="XMLID_2_" class="st0" points="12.7,47.1 0.2,25.6 12.7,4 37.6,4 50,25.6 37.6,47.1 	"/>
	<polygon id="XMLID_3_" class="st1" points="14.2,44.4 3.3,25.6 14.2,6.7 36,6.7 46.9,25.6 36,44.4 	"/>
</g>
<g id="XMLID_5_">
	<g id="layer101_1_">
		<path id="XMLID_14_" class="st2" d="M17.4,19.4c1.9-1.7,4.1-2.9,6.3-3.4c1.2-0.3,3.1-0.3,4.1-0.1l0.5,0.1l0.4-0.5
			c0.4-0.4,0.5-0.5,0.9-0.6c1.3-0.3,3,0.5,4.4,2.1c1.6,1.9,2.4,3.6,2.5,5.1c0,1.2-0.5,2.2-1.3,2.5c-0.3,0.1-0.3,0.1-0.3,0.6
			c0,1.3-0.4,2.8-0.9,4.2C33.4,31,33,31.6,32,32.8c-1,1.1-1.3,1.4-2.5,1.9c-1.1,0.4-3.1,0.3-4.1-0.2c-0.2-0.1-0.3-0.1-0.5,0.2
			c-0.3,0.5-1.1,1.1-1.7,1.4c-0.6,0.3-1.5,0.3-2.2,0.2c-0.4-0.1-0.6-0.2-1.2-0.7c-0.6-0.5-0.7-0.6-0.9-1.1c-0.1-0.3-0.2-0.7-0.2-1
			l0-0.4L18.2,33c-1.8,0.2-3.8-1.7-3.9-3.6c0-0.6,0.1-1.2,0.3-1.5c0.1-0.2,0.1-0.3-0.3-0.9c-0.5-0.8-0.6-1.7-0.3-2.7
			c0.2-0.8,0.3-0.9,0.8-1.8C15.4,21.4,16.4,20.3,17.4,19.4z"/>
	</g>
	<g id="layer102_1_">
		<path id="XMLID_9_" class="st3" d="M17.7,20.3c2.7-2.6,6.1-3.9,9.3-3.6c1.8,0.2,1.9,0.2,3.2,1.3c1.3,1.1,1.7,1.6,2.6,3.1
			c0.7,1.2,1,2,1.1,3.4c0.1,2.5-0.8,5.3-2.2,7.3c-1.3,1.8-3.1,2.5-4.9,2c-0.4-0.1-0.8-0.2-0.9-0.3l-0.2-0.1l0.6-0.6
			c0.9-0.9,1.9-1.5,3.2-1.9c0.4-0.1,0.8-0.3,0.8-0.3c0,0-0.5,0-1.1,0.1c-1.3,0.1-2,0.4-3,1.1c-0.5,0.4-0.9,0.8-2.3,2.5
			c-0.5,0.7-1.2,1-1.9,1c-1.5,0-2.7-1.5-2.3-2.9c0.1-0.4,0.8-1.6,1.7-3c0.6-0.9,0.5-0.9-0.6,0.1c-0.5,0.4-0.8,0.9-1.3,1.4
			c-0.5,0.7-0.6,0.8-1,1c-1.2,0.6-3.1-0.8-3.3-2.4c-0.1-0.9,0-1.3,1-2.7c0.5-0.7,1.2-1.5,1.5-2l0.6-0.8l-0.5,0.3
			c-0.6,0.4-1.6,1.3-2.2,1.9l-0.4,0.5L15,26.6c-0.7-1.1-0.3-2.7,1.3-4.6C16.7,21.4,17.4,20.7,17.7,20.3z M25,20.8
			c0.1,0.3,0.5,0.3,1.1-0.1c0.6-0.4,1.8-0.9,2.4-1.1c0.5-0.1,0.7-0.3,0.7-0.6c0-0.5-0.7-0.4-2.3,0.3c-1.2,0.5-1.9,0.9-1.9,1.1
			C24.9,20.5,24.9,20.7,25,20.8z M25.6,23.6c0.1,0.4,0.4,0.5,0.7,0.2c0.2-0.1,0.7-0.5,1.2-0.9c0.9-0.7,1.8-1.4,2.6-1.9
			c0.5-0.3,0.6-0.6,0.3-0.9c-0.2-0.2-0.5-0.1-1.7,0.8c-0.8,0.5-2.9,2.2-3.1,2.3C25.6,23.3,25.6,23.5,25.6,23.6z M28.9,24.7
			c0,0.3,0.4,0.5,0.6,0.3c0.1-0.1,0.6-0.6,1.2-1.1c0.5-0.5,1.1-1.1,1.3-1.3c0.3-0.3,0.3-0.3,0.2-0.6c-0.3-0.6-0.7-0.3-3.2,2.3
			C28.9,24.4,28.8,24.6,28.9,24.7z"/>
		<path id="XMLID_8_" class="st3" d="M30.1,15.8c0.8,0,1.5,0.3,2.4,1.1c1.6,1.4,3.1,3.9,3,5.2c0,0.8-0.2,1.3-0.5,1.6
			c-0.1,0.1-0.3,0.2-0.3,0.2c0,0-0.1-0.3-0.2-0.7c-0.3-1.4-1.2-3-2.7-4.8c-0.7-0.8-1.9-1.8-2.4-2.1c-0.2-0.1-0.2-0.1,0-0.3
			C29.5,15.9,29.8,15.9,30.1,15.8z"/>
	</g>
</g>
</svg>
