<!DOCTYPE svg PUBLIC "-//W3C//DTD SVG 20010904//EN" "http://www.w3.org/TR/2001/REC-SVG-20010904/DTD/svg10.dtd">
<svg version="1.0" xmlns="http://www.w3.org/2000/svg" width="307px" height="247px" viewBox="0 0 3070 2470" preserveAspectRatio="xMidYMid meet">
<g id="layer101" fill="#030303" stroke="none">
 <path d="M1480 2095 c-256 -34 -482 -122 -665 -259 -99 -75 -227 -215 -279 -306 l-24 -43 -65 -1 c-54 -1 -70 -6 -101 -30 -109 -83 -155 -264 -122 -471 41 -247 115 -419 225 -517 91 -82 197 -106 280 -64 26 14 30 13 62 -13 97 -80 238 -157 379 -208 146 -53 219 -66 370 -67 148 -1 193 9 303 67 103 54 223 212 251 330 6 27 9 28 49 22 56 -8 158 9 215 37 59 28 122 93 153 155 19 39 23 65 23 138 1 80 -2 96 -27 140 -15 28 -41 64 -57 81 l-29 31 36 34 c133 128 123 401 -19 536 -40 38 -102 73 -129 73 -20 0 -25 10 -49 85 -28 88 -92 154 -191 198 -78 35 -82 36 -190 52 -116 18 -266 17 -399 0z"/>
 </g>
<g id="layer102" fill="#fefefe" stroke="none">
 <path d="M1530 2010 c-373 -37 -695 -210 -879 -471 -104 -147 -106 -153 -106 -329 1 -168 11 -236 64 -400 42 -131 90 -207 192 -304 178 -169 451 -288 696 -303 220 -14 389 72 470 239 17 35 34 74 38 87 l7 24 -83 -6 c-129 -11 -235 -48 -353 -124 -37 -24 -70 -42 -72 -40 -3 2 32 39 77 81 91 88 165 128 278 151 65 14 122 16 336 12 84 -2 149 26 200 85 95 111 58 302 -70 362 -35 17 -176 44 -344 67 -110 14 -101 23 43 40 66 9 120 9 191 1 89 -9 105 -8 141 8 120 52 142 288 38 408 -60 71 -97 84 -269 94 -82 5 -193 12 -245 16 l-95 8 55 16 c66 20 201 38 286 38 l62 0 -10 38 c-35 128 -182 199 -435 207 -70 2 -166 0 -213 -5z m-440 -580 c15 -28 -13 -55 -82 -80 -70 -25 -181 -79 -240 -116 -42 -27 -68 -30 -86 -12 -36 36 12 78 175 155 116 55 192 83 210 76 7 -3 18 -13 23 -23z m174 -229 c26 -29 12 -59 -32 -70 -20 -5 -86 -19 -147 -31 -114 -23 -222 -49 -312 -77 -59 -19 -83 -9 -83 34 0 29 25 41 166 77 90 23 354 82 380 85 6 0 19 -8 28 -18z m-130 -320 c22 -25 13 -59 -17 -65 -12 -3 -85 -10 -162 -17 -77 -6 -159 -14 -182 -16 -38 -5 -44 -2 -55 21 -26 58 24 70 378 95 11 0 29 -8 38 -18z"/>
 <path d="M381 1362 c-57 -60 -76 -127 -74 -257 3 -210 99 -490 196 -569 59 -48 112 -69 154 -61 18 3 33 8 33 11 0 2 -18 28 -41 56 -90 114 -150 282 -185 518 -16 111 -15 259 2 318 5 19 3 22 -21 22 -19 0 -39 -12 -64 -38z"/>
 </g>

</svg>