<?xml version="1.0" encoding="utf-8"?>
<!-- Generator: Adobe Illustrator 19.0.0, SVG Export Plug-In . SVG Version: 6.00 Build 0)  -->
<svg version="1.1" id="Layer_1" xmlns="http://www.w3.org/2000/svg" xmlns:xlink="http://www.w3.org/1999/xlink" x="0px" y="0px"
	 viewBox="0 0 50 50" style="enable-background:new 0 0 50 50;" xml:space="preserve">
<style type="text/css">
	.st0{fill:#1A1A1A;}
	.st1{fill:#FFFFFF;}
	.st2{fill:#030303;}
	.st3{fill:#FEFEFE;}
</style>
<g id="XMLID_1_">
	<polygon id="XMLID_2_" class="st0" points="12.7,47.1 0.2,25.6 12.7,4 37.6,4 50,25.6 37.6,47.1 	"/>
	<polygon id="XMLID_3_" class="st1" points="14.2,44.4 3.3,25.6 14.2,6.7 36,6.7 46.9,25.6 36,44.4 	"/>
</g>
<g id="XMLID_20_">
	<g id="layer101_3_">
		<path id="XMLID_32_" class="st2" d="M11,28.7c0.3-0.3,0.8-0.6,1.5-1c0.9-0.5,3.7-2.4,4.5-3c1.2-0.9,1.1-0.8,1.1-1.7
			c0-0.5,0.1-1.2,0.1-1.6c0.2-1.5,0.3-1.8,1.2-3.2c0.7-1.3,0.8-1.4,1.4-1.9c2.1-1.8,4.8-3.1,7.3-3.4c1.1-0.1,2.6-0.1,3.4,0.1
			l0.6,0.1l0.3-0.4c0.9-1.2,3.2-0.7,4.8,1.1c1.2,1.4,2.3,3.1,2.6,4.5c0.2,0.8,0.2,1.9-0.1,2.5c-0.2,0.5-0.8,1.1-1.2,1.2l-0.3,0.1
			l0,0.6c-0.1,2.4-1.4,5.6-3,7.2c-1.2,1.3-2.9,2.1-4.3,2c-0.7,0-1.9-0.4-2.4-0.6c-0.2-0.1-0.3-0.1-0.4,0c-0.2,0.2-1.5,1.9-2.3,3
			c-1.5,2.2-2.6,3.4-3.4,3.9c-1.7,1.2-4.1,1-5.2-0.4c-0.7-0.9-0.6-1.9,0.3-3c0.9-1.2,2.2-2.9,2.7-3.7l0.5-0.8l-1.3,0.7
			c-4.3,2.4-4.9,2.6-6.5,2.2c-1.6-0.4-2.7-1.7-2.7-3C10.3,29.9,10.7,29,11,28.7z"/>
	</g>
	<g id="layer102_3_">
		<path id="XMLID_27_" class="st3" d="M11.9,29.2c0.2-0.1,0.9-0.6,1.5-0.9c3.3-2,5.8-3.9,7.1-5.3c0.5-0.6,1.5-2.1,1.5-2.1
			c0,0-0.7,0.5-1.5,1.2L19,23.2l0-0.6c0-0.3,0.1-1.1,0.2-1.6c0.2-0.8,0.3-1.1,0.7-2c0.6-1.1,1-1.6,1.7-2.3c2.6-2.2,6.2-3.4,9-3
			c1.4,0.2,2,0.4,2.6,0.9c1.2,1,2.7,2.9,3.4,4.5c0.7,1.6,0.8,3.4,0.2,5.8c-0.4,1.4-1.5,3.5-2.3,4.4c-0.6,0.7-1.5,1.3-2.3,1.6
			c-1,0.3-1.9,0.3-3.1-0.2l-0.5-0.2l0.2-0.3c0.7-0.9,2-1.6,3.5-2.1l1.2-0.4l-0.7,0c-0.4,0-0.9,0-1.1,0.1c-0.7,0-1.7,0.4-2.3,0.8
			c-1.3,0.8-2.1,1.8-3.8,4.1c-3,4.1-3.6,4.8-4.8,5.2c-1.4,0.5-3-0.1-3.3-1.2c-0.2-0.5,0-0.9,0.9-2c0.7-0.9,1.5-1.9,2.3-3.2
			c0.2-0.3,1-1.4,1.7-2.4c1.2-1.7,1.5-2.2,2-3.4c0.2-0.5,0.1-0.6-0.2-0.2c-0.1,0.2-0.6,0.8-1.1,1.5c-1.3,1.6-1,1.4-7,4.8
			c-1,0.6-2.1,0.8-2.7,0.7c-1.3-0.2-2.1-0.9-2.4-1.7c-0.1-0.5-0.1-0.6,0.1-0.9C11.4,29.7,11.7,29.3,11.9,29.2z M28.6,17.7
			c0.1,0.4,0.4,0.4,1.3,0c0.5-0.2,1.3-0.6,1.9-0.8c0.6-0.2,1.1-0.4,1.1-0.5c0.2-0.3-0.1-0.6-0.4-0.6c-0.6,0-3.6,1.3-3.8,1.6
			C28.6,17.4,28.5,17.6,28.6,17.7z M29.1,20.7c0.1,0.4,0.5,0.3,2.2-0.9c0.9-0.6,1.9-1.3,2.2-1.5c0.3-0.2,0.7-0.4,0.7-0.5
			c0.2-0.3-0.3-0.7-0.6-0.6c-0.5,0.2-4.4,2.9-4.5,3.1C29.1,20.4,29.1,20.6,29.1,20.7z M32.3,21.8c0,0.1,0.1,0.3,0.3,0.3
			c0.2,0.1,0.3,0,1-0.6c0.4-0.4,1.1-1,1.4-1.3c0.7-0.6,0.8-0.8,0.7-1.1c-0.3-0.3-0.6-0.2-2.2,1.2C32.3,21.5,32.3,21.5,32.3,21.8z"/>
		<path id="XMLID_26_" class="st3" d="M18.2,38.6c0.2,0.1,0.3,0.2,0.2,0.1c-0.1-0.1-0.3-0.2-0.4-0.2C17.9,38.5,18,38.5,18.2,38.6z"
			/>
		<path id="XMLID_25_" class="st3" d="M33.3,13.1c0.3-0.2,0.7-0.2,1.4,0.1c1,0.4,1.9,1.2,2.9,2.8c1,1.5,1.5,2.8,1.4,3.8
			c-0.1,0.6-0.4,1.3-0.7,1.4c-0.2,0-0.2-0.1-0.3-0.8c-0.2-1-0.7-2.1-1.7-3.5c-1.1-1.6-2.2-2.7-3-3.2C33,13.4,33,13.3,33.3,13.1z"/>
		<path id="XMLID_24_" class="st3" d="M35.8,12.6c0.2,0.1,0.3,0.2,0.2,0.1c-0.1-0.1-0.3-0.2-0.4-0.2C35.5,12.4,35.6,12.5,35.8,12.6z
			"/>
		<path id="XMLID_23_" class="st3" d="M39.7,20.9c0,0.1-0.1,0.2-0.2,0.3c-0.1,0.1,0,0,0-0.2C39.7,20.9,39.8,20.8,39.7,20.9z"/>
		<path id="XMLID_22_" class="st3" d="M37.2,26.9c-0.1,0.1-0.2,0.3-0.3,0.5c-0.1,0.1,0,0,0.1-0.3C37.2,26.8,37.3,26.7,37.2,26.9z"/>
		<path id="XMLID_21_" class="st3" d="M36.1,28.9c-0.1,0.1-0.2,0.3-0.2,0.4c-0.1,0.1,0,0,0.1-0.3C36.1,28.8,36.1,28.7,36.1,28.9z"/>
	</g>
</g>
</svg>
