<!DOCTYPE svg PUBLIC "-//W3C//DTD SVG 20010904//EN" "http://www.w3.org/TR/2001/REC-SVG-20010904/DTD/svg10.dtd">
<svg version="1.0" xmlns="http://www.w3.org/2000/svg" width="318px" height="222px" viewBox="0 0 3180 2220" preserveAspectRatio="xMidYMid meet">
<g id="layer101" fill="#030303" stroke="none">
 <path d="M2630 2193 c-38 -14 -91 -41 -160 -82 -91 -53 -388 -205 -485 -248 -140 -61 -124 -60 -207 -14 -40 22 -104 52 -143 67 -139 52 -171 58 -340 58 -147 0 -166 -3 -237 -27 -259 -89 -507 -265 -655 -464 -63 -86 -134 -221 -159 -303 l-17 -59 -50 -6 c-151 -21 -216 -241 -138 -473 59 -176 160 -353 258 -449 58 -57 154 -108 223 -118 54 -7 132 14 166 46 l23 22 53 -26 c217 -106 555 -148 778 -97 175 39 323 146 388 280 31 64 62 184 62 240 0 21 6 29 23 33 31 8 239 34 377 47 262 26 419 57 509 101 186 92 285 307 216 472 -43 102 -140 147 -275 126 -152 -22 -362 -48 -450 -54 l-95 -6 130 78 c421 255 466 296 510 463 42 156 -16 325 -129 378 -44 21 -137 29 -176 15z"/>
 </g>
<g id="layer102" fill="#fefefe" stroke="none">
 <path d="M2625 2091 c-22 -10 -92 -47 -155 -82 -341 -191 -623 -314 -812 -354 -72 -15 -258 -32 -258 -23 0 3 79 34 176 69 l176 63 -56 28 c-31 16 -98 43 -149 60 -77 26 -112 32 -211 36 -123 5 -189 -4 -281 -38 -325 -120 -600 -369 -704 -640 -53 -136 -64 -195 -51 -269 26 -155 122 -382 219 -519 100 -140 260 -237 493 -297 135 -36 381 -46 498 -21 95 20 184 64 249 122 79 71 118 151 137 278 l7 49 -34 -7 c-111 -21 -238 -95 -353 -205 l-89 -86 36 57 c20 32 47 75 60 95 36 57 117 128 183 161 136 68 258 96 544 127 507 54 594 75 689 161 113 101 142 265 62 345 -40 40 -82 44 -218 21 -114 -20 -240 -35 -388 -46 -38 -3 -171 -15 -295 -27 -210 -19 -269 -20 -397 -2 -51 6 -57 23 -9 23 19 0 101 11 183 25 198 34 171 20 761 378 98 59 174 138 196 204 41 121 29 228 -34 294 -33 35 -42 39 -86 39 -27 0 -67 -9 -89 -19z m-1827 -883 c29 -29 13 -55 -65 -109 -43 -29 -115 -86 -160 -126 -45 -40 -91 -73 -102 -73 -31 0 -46 36 -27 65 35 53 291 253 327 254 8 1 20 -4 27 -11z m237 -198 c30 -33 3 -54 -185 -143 -96 -46 -203 -100 -238 -120 -35 -20 -69 -37 -76 -37 -32 0 -49 57 -23 78 40 32 466 241 493 242 6 0 19 -9 29 -20z m-61 -333 c11 -8 17 -23 14 -38 -3 -21 -15 -28 -103 -56 -55 -18 -137 -47 -183 -63 -82 -31 -115 -32 -126 -5 -16 42 14 60 214 126 165 54 160 53 184 36z"/>
 <path d="M3133 1075 c0 -27 2 -38 4 -22 2 15 2 37 0 50 -2 12 -4 0 -4 -28z"/>
 <path d="M164 1019 c-30 -15 -51 -56 -64 -128 -19 -105 9 -219 95 -391 83 -167 172 -272 263 -313 55 -24 136 -28 157 -6 12 12 5 21 -50 66 -81 66 -151 165 -225 318 -84 173 -129 321 -130 423 0 44 -7 49 -46 31z"/>
 <path d="M3 825 c0 -27 2 -38 4 -22 2 15 2 37 0 50 -2 12 -4 0 -4 -28z"/>
 <path d="M533 73 c9 -2 25 -2 35 0 9 3 1 5 -18 5 -19 0 -27 -2 -17 -5z"/>
 <path d="M1173 3 c15 -2 39 -2 55 0 15 2 2 4 -28 4 -30 0 -43 -2 -27 -4z"/>
 <path d="M1403 3 c15 -2 37 -2 50 0 12 2 0 4 -28 4 -27 0 -38 -2 -22 -4z"/>
 </g>

</svg>