<?xml version="1.0" encoding="utf-8"?>
<!-- Generator: Adobe Illustrator 19.0.0, SVG Export Plug-In . SVG Version: 6.00 Build 0)  -->
<svg version="1.1" id="Layer_1" xmlns="http://www.w3.org/2000/svg" xmlns:xlink="http://www.w3.org/1999/xlink" x="0px" y="0px"
	 viewBox="0 0 50 50" style="enable-background:new 0 0 50 50;" xml:space="preserve">
<style type="text/css">
	.st0{fill:#1A1A1A;}
	.st1{fill:#FFFFFF;}
	.st2{fill:#030303;}
	.st3{fill:#FEFEFE;}
</style>
<g id="XMLID_1_">
	<polygon id="XMLID_2_" class="st0" points="37.6,4 50,25.6 37.6,47.1 12.7,47.1 0.2,25.6 12.7,4 	"/>
	<polygon id="XMLID_3_" class="st1" points="36,6.7 46.9,25.6 36,44.4 14.2,44.4 3.3,25.6 14.2,6.7 	"/>
</g>
<g id="XMLID_20_">
	<g id="layer101_3_">
		<path id="XMLID_32_" class="st2" d="M39.3,22.4c-0.3,0.3-0.8,0.6-1.5,1c-0.9,0.5-3.7,2.4-4.5,3c-1.2,0.9-1.1,0.8-1.1,1.7
			c0,0.5-0.1,1.2-0.1,1.6c-0.2,1.5-0.3,1.8-1.2,3.2c-0.7,1.3-0.8,1.4-1.4,1.9c-2.1,1.8-4.8,3.1-7.3,3.4c-1.1,0.1-2.6,0.1-3.4-0.1
			L18.1,38l-0.3,0.4c-0.9,1.2-3.2,0.7-4.8-1.1c-1.2-1.4-2.3-3.1-2.6-4.5c-0.2-0.8-0.2-1.9,0.1-2.5c0.2-0.5,0.8-1.1,1.2-1.2L12,29
			l0-0.6c0.1-2.4,1.4-5.6,3-7.2c1.2-1.3,2.9-2.1,4.3-2c0.7,0,1.9,0.4,2.4,0.6c0.2,0.1,0.3,0.1,0.4,0c0.2-0.2,1.5-1.9,2.3-3
			c1.5-2.2,2.6-3.4,3.4-3.9c1.7-1.2,4.1-1,5.2,0.4c0.7,0.9,0.6,1.9-0.3,3c-0.9,1.2-2.2,2.9-2.7,3.7l-0.5,0.8l1.3-0.7
			c4.3-2.4,4.9-2.6,6.5-2.2c1.6,0.4,2.7,1.7,2.7,3C40,21.3,39.6,22.1,39.3,22.4z"/>
	</g>
	<g id="layer102_3_">
		<path id="XMLID_27_" class="st3" d="M38.3,21.9c-0.2,0.1-0.9,0.6-1.5,0.9c-3.3,2-5.8,3.9-7.1,5.3c-0.5,0.6-1.5,2.1-1.5,2.1
			c0,0,0.7-0.5,1.5-1.2l1.4-1.2l0,0.6c0,0.3-0.1,1.1-0.2,1.6c-0.2,0.8-0.3,1.1-0.7,2c-0.6,1.1-1,1.6-1.7,2.3c-2.6,2.2-6.2,3.4-9,3
			c-1.4-0.2-2-0.4-2.6-0.9c-1.2-1-2.7-2.9-3.4-4.5c-0.7-1.6-0.8-3.4-0.2-5.8c0.4-1.4,1.5-3.5,2.3-4.4c0.6-0.7,1.5-1.3,2.3-1.6
			c1-0.3,1.9-0.3,3.1,0.2l0.5,0.2l-0.2,0.3c-0.7,0.9-2,1.6-3.5,2.1l-1.2,0.4l0.7,0c0.4,0,0.9,0,1.1-0.1c0.7,0,1.7-0.4,2.3-0.8
			c1.3-0.8,2.1-1.8,3.8-4.1c3-4.1,3.6-4.8,4.8-5.2c1.4-0.5,3,0.1,3.3,1.2c0.2,0.5,0,0.9-0.9,2c-0.7,0.9-1.5,1.9-2.3,3.2
			c-0.2,0.3-1,1.4-1.7,2.4c-1.2,1.7-1.5,2.2-2,3.4c-0.2,0.5-0.1,0.6,0.2,0.2c0.1-0.2,0.6-0.8,1.1-1.5c1.3-1.6,1-1.4,7-4.8
			c1-0.6,2.1-0.8,2.7-0.7c1.3,0.2,2.1,0.9,2.4,1.7c0.1,0.5,0.1,0.6-0.1,0.9C38.8,21.5,38.5,21.8,38.3,21.9z M21.7,33.5
			c-0.1-0.4-0.4-0.4-1.3,0c-0.5,0.2-1.3,0.6-1.9,0.8s-1.1,0.4-1.1,0.5c-0.2,0.3,0.1,0.6,0.4,0.6c0.6,0,3.6-1.3,3.8-1.6
			C21.7,33.7,21.7,33.6,21.7,33.5z M21.1,30.5C21,30,20.7,30.2,19,31.4c-0.9,0.6-1.9,1.3-2.2,1.5c-0.3,0.2-0.7,0.4-0.7,0.5
			c-0.2,0.3,0.3,0.7,0.6,0.6c0.5-0.2,4.4-2.9,4.5-3.1C21.2,30.8,21.2,30.6,21.1,30.5z M17.9,29.3c0-0.1-0.1-0.3-0.3-0.3
			c-0.2-0.1-0.3,0-1,0.6c-0.4,0.4-1.1,1-1.4,1.3c-0.7,0.6-0.8,0.8-0.7,1.1c0.3,0.3,0.6,0.2,2.2-1.2C18,29.6,17.9,29.6,17.9,29.3z"/>
		<path id="XMLID_26_" class="st3" d="M32,12.5c-0.2-0.1-0.3-0.2-0.2-0.1c0.1,0.1,0.3,0.2,0.4,0.2C32.4,12.7,32.3,12.7,32,12.5z"/>
		<path id="XMLID_25_" class="st3" d="M16.9,38.1c-0.3,0.2-0.7,0.2-1.4-0.1c-1-0.4-1.9-1.2-2.9-2.8c-1-1.5-1.5-2.8-1.4-3.8
			c0.1-0.6,0.4-1.3,0.7-1.4c0.2,0,0.2,0.1,0.3,0.8c0.2,1,0.7,2.1,1.7,3.5c1.1,1.6,2.2,2.7,3,3.2C17.2,37.7,17.2,37.8,16.9,38.1z"/>
		<path id="XMLID_24_" class="st3" d="M14.4,38.5c-0.2-0.1-0.3-0.2-0.2-0.1c0.1,0.1,0.3,0.2,0.4,0.2C14.8,38.7,14.7,38.7,14.4,38.5z
			"/>
		<path id="XMLID_23_" class="st3" d="M10.5,30.2c0-0.1,0.1-0.2,0.2-0.3c0.1-0.1,0,0,0,0.2C10.5,30.3,10.5,30.3,10.5,30.2z"/>
		<path id="XMLID_22_" class="st3" d="M13,24.3c0.1-0.1,0.2-0.3,0.3-0.5c0.1-0.1,0,0-0.1,0.3C13,24.3,13,24.4,13,24.3z"/>
		<path id="XMLID_21_" class="st3" d="M14.2,22.3c0.1-0.1,0.2-0.3,0.2-0.4c0.1-0.1,0,0-0.1,0.3C14.2,22.4,14.1,22.4,14.2,22.3z"/>
	</g>
</g>
</svg>
